HIERARCHY
ROOT Hips
{
	OFFSET 0.00000 0.00000 0.00000
	CHANNELS 6 Xposition Yposition Zposition Zrotation Yrotation Xrotation 
	JOINT LHipJoint
	{
		OFFSET 0 0 0
		CHANNELS 3 Zrotation Yrotation Xrotation
		JOINT LeftHip
		{
			OFFSET 1.77779 -1.88989 0.48267
			CHANNELS 3 Zrotation Yrotation Xrotation
			JOINT LeftKnee
			{
				OFFSET 2.53442 -6.96327 0.00000
				CHANNELS 3 Zrotation Yrotation Xrotation
				JOINT LeftAnkle
				{
					OFFSET 2.71068 -7.44755 0.00000
					CHANNELS 3 Zrotation Yrotation Xrotation
					JOINT LeftToe
					{
						OFFSET 0.17992 -0.49431 2.22524
						CHANNELS 3 Zrotation Yrotation Xrotation
						End Site
						{
							OFFSET 0.00000 -0.00000 1.14687
						}
					}
				}
			}
		}
	}
	JOINT RHipJoint
	{
		OFFSET 0 0 0
		CHANNELS 3 Zrotation Yrotation Xrotation
		JOINT RightHip
		{
			OFFSET -1.58469 -1.88989 0.48267
			CHANNELS 3 Zrotation Yrotation Xrotation
			JOINT RightKnee
			{
				OFFSET -2.60386 -7.15404 0.00000
				CHANNELS 3 Zrotation Yrotation Xrotation
				JOINT RightAnkle
				{
					OFFSET -2.73334 -7.50979 0.00000
					CHANNELS 3 Zrotation Yrotation Xrotation
					JOINT RightToe
					{
						OFFSET -0.25618 -0.70384 2.21822
						CHANNELS 3 Zrotation Yrotation Xrotation
						End Site
						{
							OFFSET -0.00000 -0.00000 1.16381
						}
					}
				}
			}
		}
	}
	JOINT lowerback
	{
		OFFSET 0 0 0
		CHANNELS 3 Zrotation Yrotation Xrotation
		JOINT Chest
		{
			OFFSET 0.03410 2.01612 -0.22230
			CHANNELS 3 Zrotation Yrotation Xrotation
			JOINT Chest2
			{
				OFFSET 0.03465 2.03012 0.00937
				CHANNELS 3 Zrotation Yrotation Xrotation
				JOINT lowerneck
				{
					OFFSET 0 0 0
					CHANNELS 3 Zrotation Yrotation Xrotation
					JOINT Neck
					{
						OFFSET -0.00219 1.70459 0.20857
						CHANNELS 3 Zrotation Yrotation Xrotation
						JOINT Head
						{
							OFFSET 0.02518 1.72339 -0.22179
							CHANNELS 3 Zrotation Yrotation Xrotation
							End Site
							{
								OFFSET 0.00282 1.74122 -0.09823
							}
						}
					}
				}
				JOINT LeftCollar
				{
					OFFSET 0 0 0
					CHANNELS 3 Zrotation Yrotation Xrotation
					JOINT LeftShoulder
					{
						OFFSET 3.36358 1.00547 -0.37661
CHANNELS 3 Zrotation Xrotation Yrotation
						JOINT LeftElbow
						{
OFFSET 0 -5.065070 0.000000
CHANNELS 3 Zrotation Xrotation Yrotation
							JOINT LeftWrist
							{
OFFSET 0 -3.601960 0.000000
CHANNELS 3 Zrotation Xrotation Yrotation
								JOINT lhand
								{
									OFFSET 0 0 0
CHANNELS 3 Zrotation Xrotation Yrotation
									JOINT LFingers
									{
OFFSET 0 -0.450350 0.000000
CHANNELS 3 Zrotation Xrotation Yrotation
										End Site
										{
OFFSET 0 -0.363080 0.000000
										}
									}
								}
								JOINT LThumb
								{
OFFSET 0 0.000000 0.000000
CHANNELS 3 Zrotation Xrotation Yrotation
									End Site
									{
OFFSET 0 -0.368620 0.368620
									}
								}
							}
						}
					}
				}
				JOINT RightCollar
				{
					OFFSET 0 0 0
					CHANNELS 3 Zrotation Yrotation Xrotation
					JOINT RightShoulder
					{
						OFFSET -3.50159 0.80383 -0.71526
CHANNELS 3 Zrotation Xrotation Yrotation
						JOINT RightElbow
						{
OFFSET 0 -5.363940 0.000000
CHANNELS 3 Zrotation Xrotation Yrotation
							JOINT RightWrist
							{
OFFSET 0 -3.580350 0.000000
CHANNELS 3 Zrotation Xrotation Yrotation
								JOINT rhand
								{
									OFFSET 0 0 0
CHANNELS 3 Zrotation Xrotation Yrotation
									JOINT RFingers
									{
OFFSET 0 -0.663750 0.000000
CHANNELS 3 Zrotation Xrotation Yrotation
										End Site
										{
OFFSET 0 -0.535130 0.000000
										}
									}
								}
								JOINT RThumb
								{
OFFSET 0 0.000000 0.000000
CHANNELS 3 Zrotation Xrotation Yrotation
									End Site
									{
OFFSET 0 -0.543300 0.543300
									}
								}
							}
						}
					}
				}
			}
		}
	}
}
MOTION
Frames: 11
Frame Time: .0083333
0.5973 17.8937 6.6538 -0.8871 2.6306 -2.8649 0.0000 0.0000 0.0000 -20.7731 0.7162 8.2744 4.7089 13.0483 39.5495 -0.4740 -12.1085 5.1403 0.9726 -6.2783 -17.5942 0.0000 0.0000 0.0000 22.7249 12.0242 -21.8671 -2.4481 -9.7430 28.1484 0.0309 -4.2933 -4.7038 -0.1846 -2.7674 7.6319 -1.5279 -1.0244 11.8073 2.4148 -1.4127 0.4146 3.6468 -0.6147 -6.0947 -1.4398 -2.1542 -17.5930 -1.8240 -2.1229 24.8069 -0.7238 -1.3345 10.9186 -0.0000 -0.0000 0.0000 6.9721 0.5404 -24.9276 16.8519 -26.6622 4.0207 29.4892 1.3306 -19.1162 0.0 0.0 0.0 -7.1250 0.0 0.0 1.2697 51.687 -0.2091 -0.0000 -0.0000 0.0000 -0.8685 2.4278 -16.6381 -9.4002 -15.7959 -1.3069 -17.409 9.3845 -19.0464 0.0 0.0 0.0 7.1250 0.0 -0.0 7.0152 10.2067 5.7052
0.5765 17.9071 6.8438 -1.0618 2.4085 -3.0482 0.0000 0.0000 0.0000 -20.2866 0.7033 7.1602 5.2063 13.6124 41.7064 -0.5336 -13.1543 8.0599 1.3617 -7.3860 -20.8640 0.0000 0.0000 0.0000 23.2846 11.8600 -21.2714 -2.5288 -9.8901 28.6215 0.0339 -4.2134 -4.3713 -0.0674 -1.6754 4.6095 -1.4351 -0.9289 11.9667 2.4904 -1.2692 0.4614 3.6542 -0.5453 -6.1453 -1.4180 -2.1483 -17.6554 -1.8827 -2.1041 24.6991 -0.7453 -1.3308 10.8897 -0.0000 0.0000 0.0000 6.6598 0.9586 -24.2178 16.9349 -26.7719 4.058 28.2875 2.982 -21.9952 0.0 0.0 0.0 -7.1250 0.0 0.0 -0.5889 54.6201 0.1392 -0.0000 0.0000 0.0000 -0.995 2.2509 -17.3632 -9.2221 -15.5137 -1.2589 -17.2614 10.0326 -19.3072 0.0 0.0 0.0 7.1250 0.0 -0.0 7.1234 9.957 5.8309
0.5609 17.9240 7.0388 -1.1362 2.3754 -3.2488 0.0000 0.0000 0.0000 -19.9363 0.5509 6.1369 5.7170 14.1484 43.8353 -0.5419 -14.0780 11.2267 1.0493 -6.5138 -18.2826 0.0000 0.0000 0.0000 23.6768 11.5126 -20.5562 -2.5769 -9.9764 28.9005 0.0312 -4.2685 -4.6444 -0.0702 -1.7090 4.7021 -1.3123 -0.8853 12.2252 2.5020 -1.1921 0.3313 3.5949 -0.5043 -6.4364 -1.4478 -2.1226 -17.2947 -1.9507 -2.0487 24.6613 -0.7512 -1.3161 10.8057 -0.0000 0.0000 0.0000 6.4205 1.7835 -23.8013 17.0614 -26.9386 4.1151 27.5808 3.7706 -23.1391 0.0 0.0 0.0 -7.1250 0.0 0.0 -1.6570 55.7125 0.4357 -0.0000 0.0000 0.0000 -1.0296 2.3709 -18.1527 -9.1214 -15.3537 -1.2321 -16.9735 10.6952 -19.3098 0.0 0.0 0.0 7.1250 0.0 -0.0 7.3101 9.9891 5.9815
0.5427 17.9496 7.2420 -1.3768 2.3946 -3.4111 0.0000 0.0000 0.0000 -19.4432 0.1586 5.0447 6.2519 14.6681 45.9846 -0.3440 -14.0553 15.3306 0.1197 -2.2305 -6.1431 0.0000 0.0000 0.0000 24.2207 11.1167 -19.7543 -2.5931 -10.0053 28.9939 0.0111 -3.9309 -5.1094 -0.1798 -2.7315 7.5321 -0.9703 -0.8374 12.4053 2.4708 -1.0793 0.1540 3.3573 -0.4535 -6.7410 -1.3456 -2.1805 -16.9780 -1.9865 -2.1569 24.8174 -0.7942 -1.3604 10.7992 0.0000 -0.0000 0.0000 6.4808 2.3272 -23.9023 16.9147 -26.7451 4.0489 27.7365 4.6701 -24.5508 0.0 0.0 0.0 -7.1250 0.0 0.0 -1.9200 57.2677 0.5771 0.0000 -0.0000 0.0000 -0.935 2.7912 -17.9102 -9.1605 -15.4159 -1.2424 -16.6956 10.3403 -19.4412 0.0 0.0 0.0 7.1250 0.0 -0.0 7.4961 9.8881 6.1518
0.5240 17.9710 7.4286 -2.0402 2.0669 -3.4977 0.0000 0.0000 0.0000 -18.5326 -0.1857 3.7046 6.8359 15.1921 48.2508 -0.0510 -14.0860 19.4252 0.0018 0.2721 0.7477 0.0000 0.0000 0.0000 25.2720 11.0343 -18.9573 -2.5788 -9.9798 28.9115 -0.0100 -3.4991 -5.4437 -0.2179 -3.0050 8.2927 -0.3438 -0.7485 12.5974 2.6290 -0.8556 0.0485 3.1374 -0.3581 -6.9831 -1.2811 -2.2176 -16.9525 -2.0245 -2.2180 24.8837 -0.8279 -1.3872 10.8169 -0.0000 0.0000 0.0000 6.4239 2.3548 -23.6906 16.3297 -25.9657 3.7892 27.4526 4.2475 -24.052 0.0 0.0 0.0 -7.1250 0.0 0.0 -2.0733 56.668 0.5932 -0.0000 0.0000 0.0000 -0.9473 2.9364 -17.4214 -9.2058 -15.4878 -1.2545 -16.5311 10.0482 -19.3453 0.0 0.0 0.0 7.1250 0.0 -0.0 7.5983 10.0056 6.219
0.5082 17.9885 7.5956 -2.6239 1.6312 -3.5058 0.0000 0.0000 0.0000 -17.6858 -0.3795 2.1916 7.4599 15.7072 50.5929 0.1099 -15.0785 22.5167 0.0068 -0.5321 -1.4621 0.0000 0.0000 0.0000 26.2259 11.0739 -18.2187 -2.5354 -9.9020 28.6600 -0.0173 -3.3356 -5.5421 -0.1958 -2.8492 7.8592 0.1318 -0.6378 12.8475 2.8514 -0.6179 0.0377 3.0670 -0.2524 -7.1522 -1.2213 -2.2319 -17.3359 -2.2004 -2.1990 24.8504 -0.9040 -1.3953 10.8763 0.0000 0.0000 0.0000 6.1349 2.3859 -23.3346 15.8982 -25.3824 3.6022 27.5738 2.6725 -21.3923 0.0 0.0 0.0 -7.1250 0.0 0.0 -1.1962 53.8182 0.2594 0.0000 0.0000 0.0000 -1.1798 2.7632 -16.6693 -9.2416 -15.5447 -1.2641 -16.4523 10.012 -18.6412 0.0 0.0 0.0 7.1250 0.0 -0.0 7.6207 10.7343 6.1238
0.4896 18.0039 7.7662 -3.1295 1.2567 -3.5011 0.0000 0.0000 0.0000 -16.8881 -0.5383 0.6508 8.1019 16.1937 52.9288 0.2035 -15.6227 24.0979 0.0041 -0.4116 -1.1309 0.0000 0.0000 0.0000 27.0833 11.1784 -17.3612 -2.4801 -9.8016 28.3366 -0.0251 -3.4387 -5.9752 -0.1807 -2.7381 7.5503 0.5001 -0.5134 12.9802 3.0441 -0.3803 0.0485 3.0217 -0.1452 -7.2294 -1.3490 -2.2372 -17.5897 -2.1076 -2.1879 24.8448 -0.8513 -1.3910 10.9271 -0.0000 -0.0000 0.0000 5.8708 2.7203 -23.1887 15.8123 -25.2655 3.5655 27.3804 0.5754 -18.2612 0.0 0.0 0.0 -7.1250 0.0 0.0 -0.7166 50.3633 0.0947 -0.0000 -0.0000 0.0000 -1.3526 2.4544 -16.5993 -9.1840 -15.4532 -1.2487 -16.6804 10.3158 -18.491 0.0 0.0 0.0 7.1250 0.0 -0.0 7.4659 10.8618 5.9775
0.4771 18.0229 7.9449 -3.6942 1.0573 -3.5180 0.0000 0.0000 0.0000 -16.0677 -0.8608 -0.7490 8.7194 16.6238 55.1147 0.3272 -14.7378 24.1033 0.0026 0.3314 0.9105 0.0000 0.0000 0.0000 27.9453 10.9312 -16.5700 -2.4356 -9.7199 28.0743 -0.0450 -3.2073 -6.4253 -0.2062 -2.9235 8.0659 1.1518 -0.4061 12.9767 3.1286 -0.1324 0.0341 2.6950 -0.0458 -7.2566 -1.4464 -2.2847 -17.3163 -1.8756 -2.2982 24.5765 -0.7590 -1.4195 10.7781 0.0000 0.0000 0.0000 5.8211 2.8399 -23.1495 15.5726 -24.9377 3.4638 27.187 0.0182 -16.7901 0.0 0.0 0.0 -7.1250 0.0 0.0 -0.6477 48.7159 0.0594 0.0000 0.0000 0.0000 -1.3578 2.1994 -17.0909 -9.0715 -15.2744 -1.2189 -16.5779 10.4928 -19.3395 0.0 0.0 0.0 7.1250 0.0 -0.0 7.5678 10.006 6.1935
0.4725 18.0426 8.1196 -4.1165 0.9318 -3.5795 0.0000 0.0000 0.0000 -15.5125 -1.2816 -1.9648 9.2905 16.9911 57.0895 0.2695 -13.8260 22.4698 0.0129 -0.7342 -2.0177 0.0000 0.0000 0.0000 28.6037 10.5074 -15.8661 -2.4121 -9.6763 27.9347 -0.0623 -2.8783 -6.6614 -0.2675 -3.3268 9.1900 1.7741 -0.3363 13.0964 3.1161 0.0584 0.0319 2.2945 0.0247 -7.3337 -1.3147 -2.3223 -17.1884 -1.7827 -2.4193 24.4045 -0.7604 -1.4499 10.6879 -0.0000 -0.0000 0.0000 5.8474 2.7769 -23.01 15.2493 -24.4923 3.3286 26.9942 0.2809 -16.4115 0.0 0.0 0.0 -7.1250 0.0 0.0 -0.7735 48.2693 0.0624 -0.0000 -0.0000 0.0000 -1.328 1.9701 -16.9901 -9.0595 -15.2551 -1.2157 -16.3188 10.3189 -19.9253 0.0 0.0 0.0 7.1250 0.0 -0.0 7.7610 9.4391 6.4441
0.4629 18.0532 8.3012 -4.2258 0.5812 -3.6414 0.0000 0.0000 0.0000 -15.2743 -1.3035 -3.0534 9.8090 17.3010 58.8480 -0.0090 -13.6863 19.3449 0.1797 -2.7302 -7.5285 0.0000 0.0000 0.0000 28.9679 10.3893 -15.0691 -2.4054 -9.6638 27.8949 -0.0796 -2.6657 -6.9986 -0.2859 -3.4386 9.5023 1.8593 -0.2055 13.0903 3.1295 0.2450 0.0549 2.2242 0.1127 -7.3104 -1.2547 -2.3494 -17.1957 -1.8157 -2.4659 24.4384 -0.7894 -1.4698 10.7000 -0.0000 0.0000 0.0000 5.7432 2.8592 -22.7176 15.0044 -24.1522 3.2277 26.8594 1.5525 -18.3639 0.0 0.0 0.0 -7.1250 0.0 0.0 -1.2575 50.3857 0.1669 -0.0000 0.0000 0.0000 -1.4569 1.7487 -16.1767 -9.0957 -15.3128 -1.2253 -16.4092 10.0938 -19.2135 0.0 0.0 0.0 7.1250 0.0 -0.0 7.6717 10.1546 6.2568
0.4523 18.0607 8.4802 -4.1379 0.3173 -3.7030 0.0000 0.0000 0.0000 -15.2440 -1.3087 -4.1543 10.2753 17.5618 60.4045 -0.1556 -12.7491 15.9984 0.3668 -3.8902 -10.7678 0.0000 0.0000 0.0000 29.0765 10.3467 -14.3237 -2.4089 -9.6704 27.9159 -0.1262 -2.2477 -7.9313 -0.2077 -2.9344 8.0960 1.7493 -0.0689 13.1622 3.0922 0.4099 0.0478 2.2158 0.1962 -7.3630 -1.2544 -2.3570 -17.2964 -1.7930 -2.4800 24.5283 -0.7862 -1.4736 10.7530 0.0000 -0.0000 0.0000 5.5775 2.9692 -22.2252 14.8307 -23.9097 3.157 26.3528 3.0756 -20.9631 0.0 0.0 0.0 -7.1250 0.0 0.0 -2.3625 53.114 0.4718 0.0000 -0.0000 0.0000 -1.605 1.3094 -16.2343 -8.9814 -15.1308 -1.1953 -16.9384 10.9501 -18.48 0.0 0.0 0.0 7.1250 0.0 -0.0 7.2969 10.8435 5.8427
